%TF.GenerationSoftware,KiCad,Pcbnew,8.0.4-8.0.4-0~ubuntu22.04.1*%
%TF.CreationDate,2024-08-26T08:57:22+02:00*%
%TF.ProjectId,uC_TP_Boussole_mb,75435f54-505f-4426-9f75-73736f6c655f,rev?*%
%TF.SameCoordinates,Original*%
%TF.FileFunction,Soldermask,Top*%
%TF.FilePolarity,Negative*%
%FSLAX46Y46*%
G04 Gerber Fmt 4.6, Leading zero omitted, Abs format (unit mm)*
G04 Created by KiCad (PCBNEW 8.0.4-8.0.4-0~ubuntu22.04.1) date 2024-08-26 08:57:22*
%MOMM*%
%LPD*%
G01*
G04 APERTURE LIST*
G04 Aperture macros list*
%AMRoundRect*
0 Rectangle with rounded corners*
0 $1 Rounding radius*
0 $2 $3 $4 $5 $6 $7 $8 $9 X,Y pos of 4 corners*
0 Add a 4 corners polygon primitive as box body*
4,1,4,$2,$3,$4,$5,$6,$7,$8,$9,$2,$3,0*
0 Add four circle primitives for the rounded corners*
1,1,$1+$1,$2,$3*
1,1,$1+$1,$4,$5*
1,1,$1+$1,$6,$7*
1,1,$1+$1,$8,$9*
0 Add four rect primitives between the rounded corners*
20,1,$1+$1,$2,$3,$4,$5,0*
20,1,$1+$1,$4,$5,$6,$7,0*
20,1,$1+$1,$6,$7,$8,$9,0*
20,1,$1+$1,$8,$9,$2,$3,0*%
G04 Aperture macros list end*
%ADD10RoundRect,0.135000X0.135000X0.185000X-0.135000X0.185000X-0.135000X-0.185000X0.135000X-0.185000X0*%
%ADD11C,6.400000*%
%ADD12RoundRect,0.100000X-0.325000X0.100000X-0.325000X-0.100000X0.325000X-0.100000X0.325000X0.100000X0*%
%ADD13RoundRect,0.140000X0.140000X0.170000X-0.140000X0.170000X-0.140000X-0.170000X0.140000X-0.170000X0*%
%ADD14RoundRect,0.135000X0.185000X-0.135000X0.185000X0.135000X-0.185000X0.135000X-0.185000X-0.135000X0*%
%ADD15RoundRect,0.218750X-0.218750X-0.256250X0.218750X-0.256250X0.218750X0.256250X-0.218750X0.256250X0*%
%ADD16RoundRect,0.140000X0.170000X-0.140000X0.170000X0.140000X-0.170000X0.140000X-0.170000X-0.140000X0*%
%ADD17R,1.550000X1.300000*%
%ADD18RoundRect,0.100000X-0.100000X-0.325000X0.100000X-0.325000X0.100000X0.325000X-0.100000X0.325000X0*%
%ADD19RoundRect,0.250000X1.250000X0.550000X-1.250000X0.550000X-1.250000X-0.550000X1.250000X-0.550000X0*%
%ADD20RoundRect,0.250000X0.600000X0.725000X-0.600000X0.725000X-0.600000X-0.725000X0.600000X-0.725000X0*%
%ADD21O,1.700000X1.950000*%
%ADD22RoundRect,0.375000X-1.625000X0.375000X-1.625000X-0.375000X1.625000X-0.375000X1.625000X0.375000X0*%
%ADD23RoundRect,0.250000X-1.450000X0.250000X-1.450000X-0.250000X1.450000X-0.250000X1.450000X0.250000X0*%
%ADD24RoundRect,0.135000X-0.185000X0.135000X-0.185000X-0.135000X0.185000X-0.135000X0.185000X0.135000X0*%
%ADD25R,1.700000X1.700000*%
%ADD26O,1.700000X1.700000*%
%ADD27RoundRect,0.218750X-0.256250X0.218750X-0.256250X-0.218750X0.256250X-0.218750X0.256250X0.218750X0*%
%ADD28RoundRect,0.218750X0.256250X-0.218750X0.256250X0.218750X-0.256250X0.218750X-0.256250X-0.218750X0*%
%ADD29RoundRect,0.250000X-1.050000X-0.550000X1.050000X-0.550000X1.050000X0.550000X-1.050000X0.550000X0*%
%ADD30C,2.775000*%
%ADD31RoundRect,0.150000X-0.150000X0.825000X-0.150000X-0.825000X0.150000X-0.825000X0.150000X0.825000X0*%
%ADD32RoundRect,0.250000X-0.450000X0.262500X-0.450000X-0.262500X0.450000X-0.262500X0.450000X0.262500X0*%
%ADD33RoundRect,0.140000X-0.170000X0.140000X-0.170000X-0.140000X0.170000X-0.140000X0.170000X0.140000X0*%
%ADD34R,1.600000X1.000000*%
%ADD35R,2.510000X1.000000*%
%ADD36C,2.000000*%
%ADD37C,1.600000*%
%ADD38RoundRect,0.950000X-0.000010X0.000010X-0.000010X-0.000010X0.000010X-0.000010X0.000010X0.000010X0*%
%ADD39RoundRect,0.200000X1.050000X-1.800000X1.050000X1.800000X-1.050000X1.800000X-1.050000X-1.800000X0*%
%ADD40RoundRect,0.200000X1.800000X-3.300000X1.800000X3.300000X-1.800000X3.300000X-1.800000X-3.300000X0*%
%ADD41C,3.200000*%
%ADD42RoundRect,0.375000X-0.375000X0.625000X-0.375000X-0.625000X0.375000X-0.625000X0.375000X0.625000X0*%
%ADD43RoundRect,0.500000X-1.400000X0.500000X-1.400000X-0.500000X1.400000X-0.500000X1.400000X0.500000X0*%
%ADD44R,1.000000X3.150000*%
%ADD45RoundRect,0.250000X0.625000X-0.400000X0.625000X0.400000X-0.625000X0.400000X-0.625000X-0.400000X0*%
%ADD46RoundRect,0.100000X0.100000X-0.225000X0.100000X0.225000X-0.100000X0.225000X-0.100000X-0.225000X0*%
%ADD47C,1.900000*%
%ADD48R,1.000000X1.900000*%
%ADD49RoundRect,0.135000X-0.135000X-0.185000X0.135000X-0.185000X0.135000X0.185000X-0.135000X0.185000X0*%
%ADD50RoundRect,0.237500X0.250000X0.237500X-0.250000X0.237500X-0.250000X-0.237500X0.250000X-0.237500X0*%
%ADD51RoundRect,0.100000X0.325000X-0.100000X0.325000X0.100000X-0.325000X0.100000X-0.325000X-0.100000X0*%
%ADD52RoundRect,0.140000X-0.140000X-0.170000X0.140000X-0.170000X0.140000X0.170000X-0.140000X0.170000X0*%
%ADD53RoundRect,0.100000X0.100000X-0.637500X0.100000X0.637500X-0.100000X0.637500X-0.100000X-0.637500X0*%
%ADD54R,5.400000X2.850000*%
G04 APERTURE END LIST*
D10*
%TO.C,R507*%
X102322500Y-90000000D03*
X101302500Y-90000000D03*
%TD*%
D11*
%TO.C,H105*%
X235000000Y-135000000D03*
%TD*%
D12*
%TO.C,D501*%
X65800000Y-64925000D03*
X65800000Y-64275000D03*
X65800000Y-63625000D03*
X63950000Y-63625000D03*
X63950000Y-64925000D03*
%TD*%
D13*
%TO.C,C202*%
X171400000Y-67350000D03*
X170440000Y-67350000D03*
%TD*%
D11*
%TO.C,H102*%
X115000000Y-55000000D03*
%TD*%
D14*
%TO.C,R404*%
X220100000Y-56010000D03*
X220100000Y-54990000D03*
%TD*%
D15*
%TO.C,D505*%
X98425000Y-84000000D03*
X100000000Y-84000000D03*
%TD*%
D16*
%TO.C,C403*%
X181100000Y-84280000D03*
X181100000Y-83320000D03*
%TD*%
D17*
%TO.C,SW302*%
X230225000Y-84850000D03*
X238175000Y-84850000D03*
X230225000Y-89350000D03*
X238175000Y-89350000D03*
%TD*%
D18*
%TO.C,D511*%
X210650000Y-109075000D03*
X210000000Y-109075000D03*
X209350000Y-109075000D03*
X209350000Y-110925000D03*
X210000000Y-110925000D03*
X210650000Y-110925000D03*
%TD*%
D19*
%TO.C,C402*%
X189500000Y-60000000D03*
X185100000Y-60000000D03*
%TD*%
D20*
%TO.C,J701*%
X155000000Y-60000000D03*
D21*
X152500000Y-60000000D03*
X150000000Y-60000000D03*
X147500000Y-60000000D03*
X145000000Y-60000000D03*
X142500000Y-60000000D03*
X140000000Y-60000000D03*
X137500000Y-60000000D03*
X135000000Y-60000000D03*
%TD*%
D13*
%TO.C,C901*%
X90280000Y-121500000D03*
X89320000Y-121500000D03*
%TD*%
D10*
%TO.C,R802*%
X79810000Y-86300000D03*
X78790000Y-86300000D03*
%TD*%
D22*
%TO.C,J302*%
X237500000Y-64000000D03*
X237500000Y-74600000D03*
D23*
X230500000Y-66300000D03*
X230500000Y-68300000D03*
X230500000Y-70300000D03*
X230500000Y-72300000D03*
%TD*%
D14*
%TO.C,R402*%
X214100000Y-56010000D03*
X214100000Y-54990000D03*
%TD*%
%TO.C,R512*%
X204510000Y-118510000D03*
X204510000Y-117490000D03*
%TD*%
D24*
%TO.C,R204*%
X191000000Y-76980000D03*
X191000000Y-78000000D03*
%TD*%
D15*
%TO.C,D508*%
X98425000Y-90000000D03*
X100000000Y-90000000D03*
%TD*%
D25*
%TO.C,J502*%
X55000000Y-60500000D03*
D26*
X55000000Y-63040000D03*
X55000000Y-65580000D03*
X55000000Y-68120000D03*
X55000000Y-70660000D03*
X55000000Y-73200000D03*
%TD*%
D27*
%TO.C,D401*%
X214100000Y-51512500D03*
X214100000Y-53087500D03*
%TD*%
D28*
%TO.C,D301*%
X219060000Y-106257500D03*
X219060000Y-104682500D03*
%TD*%
D11*
%TO.C,H104*%
X235000000Y-55000000D03*
%TD*%
D12*
%TO.C,D901*%
X97075000Y-118550000D03*
X97075000Y-117900000D03*
X97075000Y-117250000D03*
X95225000Y-117250000D03*
X95225000Y-118550000D03*
%TD*%
D15*
%TO.C,D507*%
X98425000Y-88000000D03*
X100000000Y-88000000D03*
%TD*%
%TO.C,D509*%
X98425000Y-92000000D03*
X100000000Y-92000000D03*
%TD*%
D29*
%TO.C,C203*%
X171900000Y-64800000D03*
X175500000Y-64800000D03*
%TD*%
D30*
%TO.C,SW401*%
X192600000Y-53400000D03*
X187900000Y-53400000D03*
X183200000Y-53400000D03*
%TD*%
D16*
%TO.C,C304*%
X230100000Y-87580000D03*
X230100000Y-86620000D03*
%TD*%
D31*
%TO.C,U301*%
X224465000Y-101175000D03*
X223195000Y-101175000D03*
X221925000Y-101175000D03*
X220655000Y-101175000D03*
X220655000Y-106125000D03*
X221925000Y-106125000D03*
X223195000Y-106125000D03*
X224465000Y-106125000D03*
%TD*%
D12*
%TO.C,D801*%
X82050000Y-78900000D03*
X82050000Y-78250000D03*
X82050000Y-77600000D03*
X80200000Y-77600000D03*
X80200000Y-78900000D03*
%TD*%
D27*
%TO.C,D201*%
X191000000Y-74102500D03*
X191000000Y-75677500D03*
%TD*%
D32*
%TO.C,R401*%
X182300000Y-58300000D03*
X182300000Y-60125000D03*
%TD*%
D33*
%TO.C,C503*%
X204480000Y-119520000D03*
X204480000Y-120480000D03*
%TD*%
D34*
%TO.C,SW303*%
X193875000Y-104950000D03*
X193875000Y-102450000D03*
X193875000Y-99950000D03*
X196275000Y-104950000D03*
X196275000Y-102450000D03*
X196275000Y-99950000D03*
%TD*%
D10*
%TO.C,R904*%
X90310000Y-116500000D03*
X89290000Y-116500000D03*
%TD*%
D35*
%TO.C,J303*%
X100345000Y-59350000D03*
X103655000Y-61890000D03*
X100345000Y-64430000D03*
X103655000Y-66970000D03*
X100345000Y-69510000D03*
X103655000Y-72050000D03*
%TD*%
D15*
%TO.C,D506*%
X98425000Y-86000000D03*
X100000000Y-86000000D03*
%TD*%
D14*
%TO.C,R514*%
X204500000Y-101510000D03*
X204500000Y-100490000D03*
%TD*%
D10*
%TO.C,R902*%
X90310000Y-115500000D03*
X89290000Y-115500000D03*
%TD*%
D14*
%TO.C,R301*%
X228710000Y-93790000D03*
X228710000Y-92770000D03*
%TD*%
D13*
%TO.C,C601*%
X109170000Y-90400000D03*
X108210000Y-90400000D03*
%TD*%
D36*
%TO.C,SW901*%
X87500000Y-120500000D03*
X87500000Y-115500000D03*
X87500000Y-118000000D03*
X73000000Y-120500000D03*
X73000000Y-115500000D03*
%TD*%
D27*
%TO.C,D403*%
X220100000Y-51512500D03*
X220100000Y-53087500D03*
%TD*%
D11*
%TO.C,H103*%
X175000000Y-55000000D03*
%TD*%
D37*
%TO.C,U401*%
X184000000Y-91120000D03*
X184000000Y-93660000D03*
X184000000Y-96200000D03*
%TD*%
D24*
%TO.C,R302*%
X228700000Y-94670000D03*
X228700000Y-95690000D03*
%TD*%
D16*
%TO.C,C301*%
X219360000Y-101550000D03*
X219360000Y-100590000D03*
%TD*%
D13*
%TO.C,C305*%
X227760000Y-70000000D03*
X226800000Y-70000000D03*
%TD*%
D24*
%TO.C,R303*%
X219360000Y-102460000D03*
X219360000Y-103480000D03*
%TD*%
D38*
%TO.C,J403*%
X201750000Y-53500000D03*
X206750000Y-53500000D03*
D39*
X204250000Y-65500000D03*
D40*
X197750000Y-56750000D03*
X210750000Y-56740000D03*
%TD*%
D14*
%TO.C,R510*%
X189500000Y-116510000D03*
X189500000Y-115490000D03*
%TD*%
%TO.C,R515*%
X204500000Y-116510000D03*
X204500000Y-115490000D03*
%TD*%
D13*
%TO.C,C904*%
X90280000Y-118000000D03*
X89320000Y-118000000D03*
%TD*%
D17*
%TO.C,SW502*%
X206025000Y-100750000D03*
X213975000Y-100750000D03*
X206025000Y-105250000D03*
X213975000Y-105250000D03*
%TD*%
D13*
%TO.C,C902*%
X90280000Y-114500000D03*
X89320000Y-114500000D03*
%TD*%
D11*
%TO.C,H101*%
X55000000Y-55000000D03*
%TD*%
D41*
%TO.C,U501*%
X120870000Y-78330000D03*
X153890000Y-130400000D03*
X169130000Y-79600000D03*
D25*
X113250000Y-82140000D03*
D26*
X115790000Y-82140000D03*
X113250000Y-84680000D03*
X115790000Y-84680000D03*
X113250000Y-87220000D03*
X115790000Y-87220000D03*
X113250000Y-89760000D03*
X115790000Y-89760000D03*
X113250000Y-92300000D03*
X115790000Y-92300000D03*
X113250000Y-94840000D03*
X115790000Y-94840000D03*
X113250000Y-97380000D03*
X115790000Y-97380000D03*
X113250000Y-99920000D03*
X115790000Y-99920000D03*
X113250000Y-102460000D03*
X115790000Y-102460000D03*
X113250000Y-105000000D03*
X115790000Y-105000000D03*
X113250000Y-107540000D03*
X115790000Y-107540000D03*
X113250000Y-110080000D03*
X115790000Y-110080000D03*
X113250000Y-112620000D03*
X115790000Y-112620000D03*
X113250000Y-115160000D03*
X115790000Y-115160000D03*
X113250000Y-117700000D03*
X115790000Y-117700000D03*
X113250000Y-120240000D03*
X115790000Y-120240000D03*
X113250000Y-122780000D03*
X115790000Y-122780000D03*
X113250000Y-125320000D03*
X115790000Y-125320000D03*
X113250000Y-127860000D03*
X115790000Y-127860000D03*
D25*
X174210000Y-82150000D03*
D26*
X176750000Y-82150000D03*
X174210000Y-84680000D03*
X176750000Y-84680000D03*
X174210000Y-87220000D03*
X176750000Y-87220000D03*
X174210000Y-89760000D03*
X176750000Y-89760000D03*
X174210000Y-92300000D03*
X176750000Y-92300000D03*
X174210000Y-94840000D03*
X176750000Y-94840000D03*
X174210000Y-97380000D03*
X176750000Y-97380000D03*
X174210000Y-99920000D03*
X176750000Y-99920000D03*
X174210000Y-102460000D03*
X176750000Y-102460000D03*
X174210000Y-105000000D03*
X176750000Y-105000000D03*
X174210000Y-107540000D03*
X176750000Y-107540000D03*
X174210000Y-110080000D03*
X176750000Y-110080000D03*
X174210000Y-112620000D03*
X176750000Y-112620000D03*
X174210000Y-115160000D03*
X176750000Y-115160000D03*
X174210000Y-117700000D03*
X176750000Y-117700000D03*
X174210000Y-120240000D03*
X176750000Y-120240000D03*
X174210000Y-122780000D03*
X176750000Y-122780000D03*
X174210000Y-125320000D03*
X176750000Y-125320000D03*
X174210000Y-127860000D03*
X176750000Y-127860000D03*
%TD*%
D17*
%TO.C,SW504*%
X206025000Y-130750000D03*
X213975000Y-130750000D03*
X206025000Y-135250000D03*
X213975000Y-135250000D03*
%TD*%
%TO.C,SW503*%
X206025000Y-115750000D03*
X213975000Y-115750000D03*
X206025000Y-120250000D03*
X213975000Y-120250000D03*
%TD*%
D11*
%TO.C,H107*%
X115000000Y-135000000D03*
%TD*%
D14*
%TO.C,R509*%
X189500000Y-118510000D03*
X189500000Y-117490000D03*
%TD*%
%TO.C,R513*%
X204500000Y-133510000D03*
X204500000Y-132490000D03*
%TD*%
%TO.C,R511*%
X204500000Y-103510000D03*
X204500000Y-102490000D03*
%TD*%
D29*
%TO.C,C201*%
X171900000Y-69800000D03*
X175500000Y-69800000D03*
%TD*%
D10*
%TO.C,R506*%
X102322500Y-88000000D03*
X101302500Y-88000000D03*
%TD*%
D33*
%TO.C,C505*%
X219500000Y-119520000D03*
X219500000Y-120480000D03*
%TD*%
D42*
%TO.C,U402*%
X187700000Y-79650000D03*
X185400000Y-79650000D03*
D43*
X185400000Y-85950000D03*
D42*
X183100000Y-79650000D03*
%TD*%
D25*
%TO.C,J501*%
X52460000Y-60500000D03*
D26*
X52460000Y-63040000D03*
X52460000Y-65580000D03*
X52460000Y-68120000D03*
X52460000Y-70660000D03*
X52460000Y-73200000D03*
%TD*%
D44*
%TO.C,J402*%
X227770000Y-52375000D03*
X227770000Y-57425000D03*
X225230000Y-52375000D03*
X225230000Y-57425000D03*
%TD*%
D10*
%TO.C,R906*%
X71210000Y-120500000D03*
X70190000Y-120500000D03*
%TD*%
D45*
%TO.C,R202*%
X178300000Y-69950000D03*
X178300000Y-66850000D03*
%TD*%
D46*
%TO.C,U601*%
X107535000Y-89140000D03*
X108185000Y-89140000D03*
X108835000Y-89140000D03*
X108835000Y-87240000D03*
X108185000Y-87240000D03*
X107535000Y-87240000D03*
%TD*%
D13*
%TO.C,C302*%
X223040000Y-99350000D03*
X222080000Y-99350000D03*
%TD*%
%TO.C,C206*%
X189880000Y-64600000D03*
X188920000Y-64600000D03*
%TD*%
D27*
%TO.C,D402*%
X217100000Y-51512500D03*
X217100000Y-53087500D03*
%TD*%
D10*
%TO.C,R503*%
X102312500Y-82000000D03*
X101292500Y-82000000D03*
%TD*%
D15*
%TO.C,D502*%
X98425000Y-78000000D03*
X100000000Y-78000000D03*
%TD*%
D16*
%TO.C,C801*%
X78800000Y-78880000D03*
X78800000Y-77920000D03*
%TD*%
D47*
%TO.C,J801*%
X68150000Y-83150000D03*
X68150000Y-106850000D03*
X91850000Y-83150000D03*
X91850000Y-106850000D03*
D48*
X76190000Y-84020000D03*
X78730000Y-80720000D03*
X81270000Y-84020000D03*
X83810000Y-80720000D03*
%TD*%
D25*
%TO.C,J503*%
X57540000Y-60500000D03*
D26*
X57540000Y-63040000D03*
X57540000Y-65580000D03*
X57540000Y-68120000D03*
X57540000Y-70660000D03*
X57540000Y-73200000D03*
%TD*%
D15*
%TO.C,D504*%
X98425000Y-82000000D03*
X100000000Y-82000000D03*
%TD*%
%TO.C,D503*%
X98425000Y-80000000D03*
X100000000Y-80000000D03*
%TD*%
D33*
%TO.C,C205*%
X178000000Y-71420000D03*
X178000000Y-72380000D03*
%TD*%
D10*
%TO.C,R505*%
X102322500Y-86000000D03*
X101302500Y-86000000D03*
%TD*%
%TO.C,R508*%
X102322500Y-92000000D03*
X101302500Y-92000000D03*
%TD*%
D44*
%TO.C,J504*%
X91430000Y-59950000D03*
X91430000Y-65000000D03*
X88890000Y-59950000D03*
X88890000Y-65000000D03*
X86350000Y-59950000D03*
X86350000Y-65000000D03*
X83810000Y-59950000D03*
X83810000Y-65000000D03*
X81270000Y-59950000D03*
X81270000Y-65000000D03*
X78730000Y-59950000D03*
X78730000Y-65000000D03*
X76190000Y-59950000D03*
X76190000Y-65000000D03*
X73650000Y-59950000D03*
X73650000Y-65000000D03*
X71110000Y-59950000D03*
X71110000Y-65000000D03*
X68570000Y-59950000D03*
X68570000Y-65000000D03*
%TD*%
D33*
%TO.C,C401*%
X181100000Y-81320000D03*
X181100000Y-82280000D03*
%TD*%
D17*
%TO.C,SW505*%
X221025000Y-115750000D03*
X228975000Y-115750000D03*
X221025000Y-120250000D03*
X228975000Y-120250000D03*
%TD*%
D14*
%TO.C,R516*%
X204510000Y-131510000D03*
X204510000Y-130490000D03*
%TD*%
D10*
%TO.C,R504*%
X102312500Y-84000000D03*
X101292500Y-84000000D03*
%TD*%
D33*
%TO.C,C501*%
X189480000Y-119520000D03*
X189480000Y-120480000D03*
%TD*%
D12*
%TO.C,D701*%
X153000000Y-64625000D03*
X153000000Y-63975000D03*
X153000000Y-63325000D03*
X151150000Y-63325000D03*
X151150000Y-64625000D03*
%TD*%
D49*
%TO.C,R905*%
X70190000Y-119500000D03*
X71210000Y-119500000D03*
%TD*%
D11*
%TO.C,H108*%
X55000000Y-135000000D03*
%TD*%
D33*
%TO.C,C502*%
X204500000Y-104520000D03*
X204500000Y-105480000D03*
%TD*%
D17*
%TO.C,SW301*%
X230225000Y-92950000D03*
X238175000Y-92950000D03*
X230225000Y-97450000D03*
X238175000Y-97450000D03*
%TD*%
D33*
%TO.C,C504*%
X204500000Y-134520000D03*
X204500000Y-135480000D03*
%TD*%
%TO.C,C303*%
X228700000Y-96600000D03*
X228700000Y-97560000D03*
%TD*%
%TO.C,C701*%
X154075000Y-63320000D03*
X154075000Y-64280000D03*
%TD*%
D12*
%TO.C,D510*%
X65900000Y-72750000D03*
X65900000Y-72100000D03*
X65900000Y-71450000D03*
X64050000Y-71450000D03*
X64050000Y-72750000D03*
%TD*%
D50*
%TO.C,R201*%
X175362500Y-73050000D03*
X173537500Y-73050000D03*
%TD*%
D10*
%TO.C,R502*%
X102322500Y-80000000D03*
X101302500Y-80000000D03*
%TD*%
%TO.C,R601*%
X109210000Y-86000000D03*
X108190000Y-86000000D03*
%TD*%
D49*
%TO.C,R801*%
X81580000Y-86300000D03*
X82600000Y-86300000D03*
%TD*%
D10*
%TO.C,R501*%
X102322500Y-78000000D03*
X101302500Y-78000000D03*
%TD*%
D14*
%TO.C,R518*%
X219510000Y-116510000D03*
X219510000Y-115490000D03*
%TD*%
D45*
%TO.C,R203*%
X190900000Y-69950000D03*
X190900000Y-66850000D03*
%TD*%
D51*
%TO.C,D302*%
X225875000Y-67650000D03*
X225875000Y-68300000D03*
X225875000Y-68950000D03*
X227725000Y-68950000D03*
X227725000Y-68300000D03*
X227725000Y-67650000D03*
%TD*%
D16*
%TO.C,C204*%
X179000000Y-72380000D03*
X179000000Y-71420000D03*
%TD*%
%TO.C,C404*%
X190800000Y-58400000D03*
X190800000Y-57440000D03*
%TD*%
D17*
%TO.C,SW501*%
X191025000Y-115750000D03*
X198975000Y-115750000D03*
X191025000Y-120250000D03*
X198975000Y-120250000D03*
%TD*%
D10*
%TO.C,R901*%
X90310000Y-120500000D03*
X89290000Y-120500000D03*
%TD*%
D52*
%TO.C,C903*%
X70220000Y-121500000D03*
X71180000Y-121500000D03*
%TD*%
D53*
%TO.C,U201*%
X180375000Y-71887500D03*
X181025000Y-71887500D03*
X181675000Y-71887500D03*
X182325000Y-71887500D03*
X182975000Y-71887500D03*
X183625000Y-71887500D03*
X184275000Y-71887500D03*
X184925000Y-71887500D03*
X185575000Y-71887500D03*
X186225000Y-71887500D03*
X186875000Y-71887500D03*
X187525000Y-71887500D03*
X188175000Y-71887500D03*
X188825000Y-71887500D03*
X188825000Y-66162500D03*
X188175000Y-66162500D03*
X187525000Y-66162500D03*
X186875000Y-66162500D03*
X186225000Y-66162500D03*
X185575000Y-66162500D03*
X184925000Y-66162500D03*
X184275000Y-66162500D03*
X183625000Y-66162500D03*
X182975000Y-66162500D03*
X182325000Y-66162500D03*
X181675000Y-66162500D03*
X181025000Y-66162500D03*
X180375000Y-66162500D03*
D54*
X184600000Y-69025000D03*
%TD*%
D10*
%TO.C,R903*%
X90310000Y-119500000D03*
X89290000Y-119500000D03*
%TD*%
D12*
%TO.C,D702*%
X140925000Y-64625000D03*
X140925000Y-63975000D03*
X140925000Y-63325000D03*
X139075000Y-63325000D03*
X139075000Y-64625000D03*
%TD*%
D11*
%TO.C,H106*%
X175000000Y-135000000D03*
%TD*%
D14*
%TO.C,R517*%
X219500000Y-118510000D03*
X219500000Y-117490000D03*
%TD*%
%TO.C,R403*%
X217100000Y-56010000D03*
X217100000Y-54990000D03*
%TD*%
D20*
%TO.C,J201*%
X186150000Y-76375000D03*
D21*
X183650000Y-76375000D03*
X181150000Y-76375000D03*
X178650000Y-76375000D03*
%TD*%
M02*
