%TF.GenerationSoftware,KiCad,Pcbnew,8.0.4-8.0.4-0~ubuntu22.04.1*%
%TF.CreationDate,2024-08-26T08:57:22+02:00*%
%TF.ProjectId,uC_TP_Boussole_mb,75435f54-505f-4426-9f75-73736f6c655f,rev?*%
%TF.SameCoordinates,Original*%
%TF.FileFunction,Legend,Bot*%
%TF.FilePolarity,Positive*%
%FSLAX46Y46*%
G04 Gerber Fmt 4.6, Leading zero omitted, Abs format (unit mm)*
G04 Created by KiCad (PCBNEW 8.0.4-8.0.4-0~ubuntu22.04.1) date 2024-08-26 08:57:22*
%MOMM*%
%LPD*%
G01*
G04 APERTURE LIST*
%ADD10C,0.150000*%
%ADD11C,0.120000*%
G04 APERTURE END LIST*
D10*
X177194285Y-79054819D02*
X177194285Y-79864342D01*
X177194285Y-79864342D02*
X177146666Y-79959580D01*
X177146666Y-79959580D02*
X177099047Y-80007200D01*
X177099047Y-80007200D02*
X177003809Y-80054819D01*
X177003809Y-80054819D02*
X176813333Y-80054819D01*
X176813333Y-80054819D02*
X176718095Y-80007200D01*
X176718095Y-80007200D02*
X176670476Y-79959580D01*
X176670476Y-79959580D02*
X176622857Y-79864342D01*
X176622857Y-79864342D02*
X176622857Y-79054819D01*
X175670476Y-79054819D02*
X176146666Y-79054819D01*
X176146666Y-79054819D02*
X176194285Y-79531009D01*
X176194285Y-79531009D02*
X176146666Y-79483390D01*
X176146666Y-79483390D02*
X176051428Y-79435771D01*
X176051428Y-79435771D02*
X175813333Y-79435771D01*
X175813333Y-79435771D02*
X175718095Y-79483390D01*
X175718095Y-79483390D02*
X175670476Y-79531009D01*
X175670476Y-79531009D02*
X175622857Y-79626247D01*
X175622857Y-79626247D02*
X175622857Y-79864342D01*
X175622857Y-79864342D02*
X175670476Y-79959580D01*
X175670476Y-79959580D02*
X175718095Y-80007200D01*
X175718095Y-80007200D02*
X175813333Y-80054819D01*
X175813333Y-80054819D02*
X176051428Y-80054819D01*
X176051428Y-80054819D02*
X176146666Y-80007200D01*
X176146666Y-80007200D02*
X176194285Y-79959580D01*
X175003809Y-79054819D02*
X174908571Y-79054819D01*
X174908571Y-79054819D02*
X174813333Y-79102438D01*
X174813333Y-79102438D02*
X174765714Y-79150057D01*
X174765714Y-79150057D02*
X174718095Y-79245295D01*
X174718095Y-79245295D02*
X174670476Y-79435771D01*
X174670476Y-79435771D02*
X174670476Y-79673866D01*
X174670476Y-79673866D02*
X174718095Y-79864342D01*
X174718095Y-79864342D02*
X174765714Y-79959580D01*
X174765714Y-79959580D02*
X174813333Y-80007200D01*
X174813333Y-80007200D02*
X174908571Y-80054819D01*
X174908571Y-80054819D02*
X175003809Y-80054819D01*
X175003809Y-80054819D02*
X175099047Y-80007200D01*
X175099047Y-80007200D02*
X175146666Y-79959580D01*
X175146666Y-79959580D02*
X175194285Y-79864342D01*
X175194285Y-79864342D02*
X175241904Y-79673866D01*
X175241904Y-79673866D02*
X175241904Y-79435771D01*
X175241904Y-79435771D02*
X175194285Y-79245295D01*
X175194285Y-79245295D02*
X175146666Y-79150057D01*
X175146666Y-79150057D02*
X175099047Y-79102438D01*
X175099047Y-79102438D02*
X175003809Y-79054819D01*
X173718095Y-80054819D02*
X174289523Y-80054819D01*
X174003809Y-80054819D02*
X174003809Y-79054819D01*
X174003809Y-79054819D02*
X174099047Y-79197676D01*
X174099047Y-79197676D02*
X174194285Y-79292914D01*
X174194285Y-79292914D02*
X174289523Y-79340533D01*
X183685714Y-72279819D02*
X183685714Y-72994104D01*
X183685714Y-72994104D02*
X183733333Y-73136961D01*
X183733333Y-73136961D02*
X183828571Y-73232200D01*
X183828571Y-73232200D02*
X183971428Y-73279819D01*
X183971428Y-73279819D02*
X184066666Y-73279819D01*
X183257142Y-72375057D02*
X183209523Y-72327438D01*
X183209523Y-72327438D02*
X183114285Y-72279819D01*
X183114285Y-72279819D02*
X182876190Y-72279819D01*
X182876190Y-72279819D02*
X182780952Y-72327438D01*
X182780952Y-72327438D02*
X182733333Y-72375057D01*
X182733333Y-72375057D02*
X182685714Y-72470295D01*
X182685714Y-72470295D02*
X182685714Y-72565533D01*
X182685714Y-72565533D02*
X182733333Y-72708390D01*
X182733333Y-72708390D02*
X183304761Y-73279819D01*
X183304761Y-73279819D02*
X182685714Y-73279819D01*
X182066666Y-72279819D02*
X181971428Y-72279819D01*
X181971428Y-72279819D02*
X181876190Y-72327438D01*
X181876190Y-72327438D02*
X181828571Y-72375057D01*
X181828571Y-72375057D02*
X181780952Y-72470295D01*
X181780952Y-72470295D02*
X181733333Y-72660771D01*
X181733333Y-72660771D02*
X181733333Y-72898866D01*
X181733333Y-72898866D02*
X181780952Y-73089342D01*
X181780952Y-73089342D02*
X181828571Y-73184580D01*
X181828571Y-73184580D02*
X181876190Y-73232200D01*
X181876190Y-73232200D02*
X181971428Y-73279819D01*
X181971428Y-73279819D02*
X182066666Y-73279819D01*
X182066666Y-73279819D02*
X182161904Y-73232200D01*
X182161904Y-73232200D02*
X182209523Y-73184580D01*
X182209523Y-73184580D02*
X182257142Y-73089342D01*
X182257142Y-73089342D02*
X182304761Y-72898866D01*
X182304761Y-72898866D02*
X182304761Y-72660771D01*
X182304761Y-72660771D02*
X182257142Y-72470295D01*
X182257142Y-72470295D02*
X182209523Y-72375057D01*
X182209523Y-72375057D02*
X182161904Y-72327438D01*
X182161904Y-72327438D02*
X182066666Y-72279819D01*
X180780952Y-73279819D02*
X181352380Y-73279819D01*
X181066666Y-73279819D02*
X181066666Y-72279819D01*
X181066666Y-72279819D02*
X181161904Y-72422676D01*
X181161904Y-72422676D02*
X181257142Y-72517914D01*
X181257142Y-72517914D02*
X181352380Y-72565533D01*
D11*
%TO.C,U501*%
X111920000Y-80810000D02*
X111920000Y-82140000D01*
X111920000Y-83410000D02*
X111920000Y-129190000D01*
X113250000Y-80810000D02*
X111920000Y-80810000D01*
X114520000Y-80810000D02*
X114520000Y-83410000D01*
X114520000Y-83410000D02*
X111920000Y-83410000D01*
X117120000Y-80810000D02*
X114520000Y-80810000D01*
X117120000Y-80810000D02*
X117120000Y-129190000D01*
X117120000Y-129190000D02*
X111920000Y-129190000D01*
X172880000Y-80820000D02*
X172880000Y-82150000D01*
X172880000Y-83420000D02*
X172880000Y-129200000D01*
X174210000Y-80820000D02*
X172880000Y-80820000D01*
X175480000Y-80820000D02*
X175480000Y-83420000D01*
X175480000Y-83420000D02*
X172880000Y-83420000D01*
X178080000Y-80820000D02*
X175480000Y-80820000D01*
X178080000Y-80820000D02*
X178080000Y-129200000D01*
X178080000Y-129200000D02*
X172880000Y-129200000D01*
%TO.C,J201*%
X176090000Y-73915000D02*
X176090000Y-79885000D01*
X176090000Y-79885000D02*
X188710000Y-79885000D01*
X176100000Y-73925000D02*
X176100000Y-74675000D01*
X176100000Y-74675000D02*
X177900000Y-74675000D01*
X176850000Y-76175000D02*
X176100000Y-76175000D01*
X176850000Y-79125000D02*
X176850000Y-76175000D01*
X177900000Y-73925000D02*
X176100000Y-73925000D01*
X177900000Y-74675000D02*
X177900000Y-73925000D01*
X179400000Y-73925000D02*
X179400000Y-74675000D01*
X179400000Y-74675000D02*
X185400000Y-74675000D01*
X182400000Y-79125000D02*
X176850000Y-79125000D01*
X182400000Y-79125000D02*
X187950000Y-79125000D01*
X185400000Y-73925000D02*
X179400000Y-73925000D01*
X185400000Y-74675000D02*
X185400000Y-73925000D01*
X186900000Y-73925000D02*
X186900000Y-74675000D01*
X186900000Y-74675000D02*
X188700000Y-74675000D01*
X187950000Y-76175000D02*
X188700000Y-76175000D01*
X187950000Y-79125000D02*
X187950000Y-76175000D01*
X188700000Y-73925000D02*
X186900000Y-73925000D01*
X188700000Y-74675000D02*
X188700000Y-73925000D01*
X188710000Y-73915000D02*
X176090000Y-73915000D01*
X188710000Y-79885000D02*
X188710000Y-73915000D01*
X189000000Y-73625000D02*
X187750000Y-73625000D01*
X189000000Y-74875000D02*
X189000000Y-73625000D01*
%TD*%
M02*
