%TF.GenerationSoftware,KiCad,Pcbnew,8.0.4-8.0.4-0~ubuntu22.04.1*%
%TF.CreationDate,2024-08-26T08:57:23+02:00*%
%TF.ProjectId,uC_TP_Boussole_mb,75435f54-505f-4426-9f75-73736f6c655f,rev?*%
%TF.SameCoordinates,Original*%
%TF.FileFunction,Soldermask,Bot*%
%TF.FilePolarity,Negative*%
%FSLAX46Y46*%
G04 Gerber Fmt 4.6, Leading zero omitted, Abs format (unit mm)*
G04 Created by KiCad (PCBNEW 8.0.4-8.0.4-0~ubuntu22.04.1) date 2024-08-26 08:57:23*
%MOMM*%
%LPD*%
G01*
G04 APERTURE LIST*
G04 Aperture macros list*
%AMRoundRect*
0 Rectangle with rounded corners*
0 $1 Rounding radius*
0 $2 $3 $4 $5 $6 $7 $8 $9 X,Y pos of 4 corners*
0 Add a 4 corners polygon primitive as box body*
4,1,4,$2,$3,$4,$5,$6,$7,$8,$9,$2,$3,0*
0 Add four circle primitives for the rounded corners*
1,1,$1+$1,$2,$3*
1,1,$1+$1,$4,$5*
1,1,$1+$1,$6,$7*
1,1,$1+$1,$8,$9*
0 Add four rect primitives between the rounded corners*
20,1,$1+$1,$2,$3,$4,$5,0*
20,1,$1+$1,$4,$5,$6,$7,0*
20,1,$1+$1,$6,$7,$8,$9,0*
20,1,$1+$1,$8,$9,$2,$3,0*%
G04 Aperture macros list end*
%ADD10C,6.400000*%
%ADD11RoundRect,0.250000X0.600000X0.725000X-0.600000X0.725000X-0.600000X-0.725000X0.600000X-0.725000X0*%
%ADD12O,1.700000X1.950000*%
%ADD13R,1.700000X1.700000*%
%ADD14O,1.700000X1.700000*%
%ADD15C,2.775000*%
%ADD16C,2.000000*%
%ADD17C,1.600000*%
%ADD18RoundRect,0.950000X-0.000010X0.000010X-0.000010X-0.000010X0.000010X-0.000010X0.000010X0.000010X0*%
%ADD19C,3.200000*%
%ADD20C,1.900000*%
G04 APERTURE END LIST*
D10*
%TO.C,H105*%
X235000000Y-135000000D03*
%TD*%
%TO.C,H102*%
X115000000Y-55000000D03*
%TD*%
D11*
%TO.C,J701*%
X155000000Y-60000000D03*
D12*
X152500000Y-60000000D03*
X150000000Y-60000000D03*
X147500000Y-60000000D03*
X145000000Y-60000000D03*
X142500000Y-60000000D03*
X140000000Y-60000000D03*
X137500000Y-60000000D03*
X135000000Y-60000000D03*
%TD*%
D13*
%TO.C,J502*%
X55000000Y-60500000D03*
D14*
X55000000Y-63040000D03*
X55000000Y-65580000D03*
X55000000Y-68120000D03*
X55000000Y-70660000D03*
X55000000Y-73200000D03*
%TD*%
D10*
%TO.C,H104*%
X235000000Y-55000000D03*
%TD*%
D15*
%TO.C,SW401*%
X192600000Y-53400000D03*
X187900000Y-53400000D03*
X183200000Y-53400000D03*
%TD*%
D16*
%TO.C,SW901*%
X87500000Y-120500000D03*
X87500000Y-115500000D03*
X87500000Y-118000000D03*
X73000000Y-120500000D03*
X73000000Y-115500000D03*
%TD*%
D10*
%TO.C,H103*%
X175000000Y-55000000D03*
%TD*%
D17*
%TO.C,U401*%
X184000000Y-91120000D03*
X184000000Y-93660000D03*
X184000000Y-96200000D03*
%TD*%
D18*
%TO.C,J403*%
X201750000Y-53500000D03*
X206750000Y-53500000D03*
%TD*%
D10*
%TO.C,H101*%
X55000000Y-55000000D03*
%TD*%
D19*
%TO.C,U501*%
X120870000Y-78330000D03*
X153890000Y-130400000D03*
X169130000Y-79600000D03*
D13*
X113250000Y-82140000D03*
D14*
X115790000Y-82140000D03*
X113250000Y-84680000D03*
X115790000Y-84680000D03*
X113250000Y-87220000D03*
X115790000Y-87220000D03*
X113250000Y-89760000D03*
X115790000Y-89760000D03*
X113250000Y-92300000D03*
X115790000Y-92300000D03*
X113250000Y-94840000D03*
X115790000Y-94840000D03*
X113250000Y-97380000D03*
X115790000Y-97380000D03*
X113250000Y-99920000D03*
X115790000Y-99920000D03*
X113250000Y-102460000D03*
X115790000Y-102460000D03*
X113250000Y-105000000D03*
X115790000Y-105000000D03*
X113250000Y-107540000D03*
X115790000Y-107540000D03*
X113250000Y-110080000D03*
X115790000Y-110080000D03*
X113250000Y-112620000D03*
X115790000Y-112620000D03*
X113250000Y-115160000D03*
X115790000Y-115160000D03*
X113250000Y-117700000D03*
X115790000Y-117700000D03*
X113250000Y-120240000D03*
X115790000Y-120240000D03*
X113250000Y-122780000D03*
X115790000Y-122780000D03*
X113250000Y-125320000D03*
X115790000Y-125320000D03*
X113250000Y-127860000D03*
X115790000Y-127860000D03*
D13*
X174210000Y-82150000D03*
D14*
X176750000Y-82150000D03*
X174210000Y-84680000D03*
X176750000Y-84680000D03*
X174210000Y-87220000D03*
X176750000Y-87220000D03*
X174210000Y-89760000D03*
X176750000Y-89760000D03*
X174210000Y-92300000D03*
X176750000Y-92300000D03*
X174210000Y-94840000D03*
X176750000Y-94840000D03*
X174210000Y-97380000D03*
X176750000Y-97380000D03*
X174210000Y-99920000D03*
X176750000Y-99920000D03*
X174210000Y-102460000D03*
X176750000Y-102460000D03*
X174210000Y-105000000D03*
X176750000Y-105000000D03*
X174210000Y-107540000D03*
X176750000Y-107540000D03*
X174210000Y-110080000D03*
X176750000Y-110080000D03*
X174210000Y-112620000D03*
X176750000Y-112620000D03*
X174210000Y-115160000D03*
X176750000Y-115160000D03*
X174210000Y-117700000D03*
X176750000Y-117700000D03*
X174210000Y-120240000D03*
X176750000Y-120240000D03*
X174210000Y-122780000D03*
X176750000Y-122780000D03*
X174210000Y-125320000D03*
X176750000Y-125320000D03*
X174210000Y-127860000D03*
X176750000Y-127860000D03*
%TD*%
D10*
%TO.C,H107*%
X115000000Y-135000000D03*
%TD*%
D13*
%TO.C,J501*%
X52460000Y-60500000D03*
D14*
X52460000Y-63040000D03*
X52460000Y-65580000D03*
X52460000Y-68120000D03*
X52460000Y-70660000D03*
X52460000Y-73200000D03*
%TD*%
D20*
%TO.C,J801*%
X68150000Y-83150000D03*
X68150000Y-106850000D03*
X91850000Y-83150000D03*
X91850000Y-106850000D03*
%TD*%
D13*
%TO.C,J503*%
X57540000Y-60500000D03*
D14*
X57540000Y-63040000D03*
X57540000Y-65580000D03*
X57540000Y-68120000D03*
X57540000Y-70660000D03*
X57540000Y-73200000D03*
%TD*%
D10*
%TO.C,H108*%
X55000000Y-135000000D03*
%TD*%
%TO.C,H106*%
X175000000Y-135000000D03*
%TD*%
D11*
%TO.C,J201*%
X186150000Y-76375000D03*
D12*
X183650000Y-76375000D03*
X181150000Y-76375000D03*
X178650000Y-76375000D03*
%TD*%
M02*
