M48
; DRILL file {KiCad 8.0.0-8.0.0-1~ubuntu22.04.1} date 2024-03-21T09:18:43+0100
; FORMAT={-:-/ absolute / inch / decimal}
; #@! TF.CreationDate,2024-03-21T09:18:43+01:00
; #@! TF.GenerationSoftware,Kicad,Pcbnew,8.0.0-8.0.0-1~ubuntu22.04.1
; #@! TF.FileFunction,Plated,1,4,PTH
FMAT,2
INCH
; #@! TA.AperFunction,Plated,PTH,ViaDrill
T1C0.0079
; #@! TA.AperFunction,Plated,PTH,ViaDrill
T2C0.0118
; #@! TA.AperFunction,Plated,PTH,ComponentDrill
T3C0.0118
; #@! TA.AperFunction,Plated,PTH,ComponentDrill
T4C0.0374
; #@! TA.AperFunction,Plated,PTH,ComponentDrill
T5C0.0394
; #@! TA.AperFunction,Plated,PTH,ComponentDrill
T6C0.0728
; #@! TA.AperFunction,Plated,PTH,ComponentDrill
T7C0.1260
%
G90
G05
T1
X7.2293Y-2.7955
X7.2293Y-2.8649
X7.3061Y-2.8649
X7.3061Y-2.7955
T2
X2.0079Y-2.1654
X2.0079Y-2.2638
X2.0079Y-2.3622
X2.0079Y-2.4606
X2.0079Y-2.5591
X2.0079Y-2.6575
X2.0079Y-2.7559
X2.0079Y-2.8543
X2.0079Y-2.9528
X2.0079Y-3.0512
X2.0079Y-3.1496
X2.0079Y-3.248
X2.0079Y-3.3465
X2.0079Y-3.4449
X2.0079Y-3.5433
X2.0079Y-3.6417
X2.0079Y-3.7402
X2.0079Y-3.8386
X2.0079Y-3.937
X2.0079Y-4.0354
X2.0079Y-4.1339
X2.0079Y-4.2323
X2.0079Y-4.3307
X2.0079Y-4.4291
X2.0079Y-4.5276
X2.0079Y-4.626
X2.0079Y-4.7244
X2.0079Y-4.8228
X2.0079Y-4.9213
X2.0079Y-5.0197
X2.0079Y-5.1181
X2.0079Y-5.2165
X2.0079Y-5.315
X2.0512Y-2.0512
X2.0512Y-5.4252
X2.1654Y-2.0079
X2.1654Y-5.4724
X2.2638Y-2.0079
X2.2638Y-5.4724
X2.3622Y-2.0079
X2.3622Y-5.4724
X2.3661Y-2.9409
X2.3681Y-2.6299
X2.378Y-2.7323
X2.3819Y-2.4291
X2.4606Y-2.0079
X2.4606Y-5.4724
X2.4862Y-2.5049
X2.4882Y-2.5561
X2.5591Y-2.0079
X2.5591Y-5.4724
X2.6004Y-2.5945
X2.6102Y-2.626
X2.6201Y-2.5295
X2.6299Y-2.2323
X2.6299Y-2.8386
X2.6457Y-2.4606
X2.6457Y-2.7559
X2.6575Y-2.0079
X2.6575Y-5.4724
X2.6732Y-2.8386
X2.6988Y-2.6398
X2.7087Y-4.622
X2.7559Y-2.0079
X2.7559Y-5.4724
X2.763Y-4.6732
X2.7638Y-4.622
X2.7992Y-2.6417
X2.8031Y-4.8228
X2.811Y-2.9252
X2.8346Y-2.8386
X2.8465Y-2.1142
X2.8465Y-2.7008
X2.8543Y-2.0079
X2.8543Y-5.4724
X2.8701Y-3.1693
X2.878Y-2.7421
X2.878Y-2.7736
X2.878Y-2.8051
X2.878Y-2.8366
X2.878Y-2.8681
X2.878Y-2.8996
X2.8858Y-3.4685
X2.9528Y-2.0079
X2.9528Y-5.4724
X2.9567Y-2.7736
X2.9567Y-2.8051
X2.9567Y-2.8366
X2.9567Y-2.8996
X2.9567Y-2.9311
X3.0Y-2.4409
X3.0Y-3.1693
X3.0039Y-2.7972
X3.0157Y-4.1535
X3.0374Y-2.9587
X3.0472Y-2.8287
X3.0512Y-2.0079
X3.0512Y-5.4724
X3.0866Y-4.2087
X3.0933Y-3.3787
X3.0984Y-2.4409
X3.1063Y-2.937
X3.1476Y-3.5591
X3.1496Y-2.0079
X3.1496Y-5.4724
X3.1693Y-3.6535
X3.2077Y-3.3298
X3.2106Y-3.063
X3.2195Y-3.3848
X3.2343Y-3.5492
X3.248Y-2.0079
X3.248Y-3.126
X3.248Y-5.4724
X3.2598Y-2.7756
X3.2992Y-3.563
X3.3465Y-2.0079
X3.3465Y-5.4724
X3.4409Y-3.0157
X3.4449Y-2.0079
X3.4449Y-5.4724
X3.4646Y-3.189
X3.478Y-4.474
X3.487Y-4.8008
X3.4882Y-3.9764
X3.5148Y-4.1693
X3.5307Y-4.4774
X3.5433Y-2.0079
X3.5433Y-5.4724
X3.5778Y-4.1575
X3.5807Y-4.4626
X3.5846Y-4.0079
X3.5866Y-4.5866
X3.5866Y-4.6457
X3.5906Y-4.7047
X3.5906Y-4.7835
X3.5906Y-4.8311
X3.5945Y-3.8622
X3.6004Y-2.2795
X3.6417Y-2.0079
X3.6417Y-5.4724
X3.6516Y-2.4626
X3.6634Y-4.0728
X3.6853Y-4.0056
X3.7165Y-2.3189
X3.7244Y-3.0236
X3.7402Y-2.0079
X3.7402Y-4.5571
X3.7402Y-5.4724
X3.7972Y-4.2224
X3.8386Y-2.0079
X3.8386Y-5.4724
X3.8465Y-2.5984
X3.8661Y-4.6417
X3.8878Y-4.1614
X3.8878Y-4.2598
X3.937Y-2.0079
X3.937Y-5.4724
X3.9449Y-2.5197
X3.9449Y-2.5984
X3.9449Y-2.6772
X3.9449Y-2.7559
X3.9449Y-2.8346
X3.9449Y-2.9134
X3.9449Y-2.9921
X4.0354Y-2.0079
X4.0354Y-5.4724
X4.0807Y-2.311
X4.1339Y-2.0079
X4.1339Y-5.4724
X4.1693Y-3.2047
X4.2264Y-3.5591
X4.2323Y-2.0079
X4.2323Y-5.4724
X4.2638Y-2.1693
X4.2835Y-3.0236
X4.2835Y-3.1811
X4.2913Y-4.1614
X4.3189Y-3.5236
X4.3307Y-2.0079
X4.3307Y-5.4724
X4.3346Y-2.4921
X4.3425Y-2.7283
X4.3425Y-3.4291
X4.3602Y-4.2697
X4.3602Y-4.5512
X4.378Y-4.6339
X4.4291Y-2.0079
X4.4291Y-5.4724
X4.5276Y-2.0079
X4.5276Y-5.4724
X4.5344Y-3.058
X4.5394Y-3.122
X4.5437Y-3.0233
X4.6181Y-4.9508
X4.626Y-2.0079
X4.626Y-5.4724
X4.6319Y-4.1516
X4.6319Y-4.2264
X4.6417Y-3.0433
X4.6496Y-3.6949
X4.6811Y-4.1516
X4.6811Y-4.2146
X4.685Y-4.5787
X4.6969Y-4.7756
X4.7244Y-2.0079
X4.7244Y-5.4724
X4.7441Y-2.2874
X4.8071Y-4.8976
X4.8228Y-2.0079
X4.8228Y-5.4724
X4.8681Y-3.1201
X4.9213Y-2.0079
X4.9213Y-5.4724
X4.9606Y-2.3465
X4.9606Y-2.7874
X5.0197Y-2.0079
X5.0197Y-5.4724
X5.065Y-4.1535
X5.065Y-4.2146
X5.0748Y-4.3858
X5.0906Y-3.313
X5.0906Y-3.7539
X5.0906Y-3.0349
X5.1102Y-4.189
X5.1181Y-2.0079
X5.1181Y-5.4724
X5.1395Y-3.3363
X5.1618Y-3.3586
X5.1841Y-3.3809
X5.189Y-3.122
X5.2063Y-3.4032
X5.2165Y-2.0079
X5.2165Y-5.4724
X5.2205Y-4.189
X5.2205Y-4.4882
X5.2244Y-2.1654
X5.2283Y-3.7539
X5.2283Y-4.1181
X5.2286Y-3.4254
X5.2529Y-3.225
X5.2618Y-4.2461
X5.2736Y-3.4961
X5.2742Y-3.2482
X5.2854Y-4.1476
X5.2964Y-3.2705
X5.3012Y-3.0374
X5.3071Y-2.4528
X5.311Y-3.1476
X5.315Y-2.0079
X5.315Y-5.4724
X5.3187Y-3.2928
X5.341Y-3.315
X5.4016Y-2.7913
X5.4134Y-2.0079
X5.4134Y-5.4724
X5.4193Y-3.065
X5.4311Y-3.3287
X5.435Y-2.6417
X5.4606Y-2.8031
X5.4606Y-2.8346
X5.4606Y-2.8661
X5.4606Y-2.8976
X5.4606Y-2.9291
X5.4626Y-2.437
X5.4921Y-2.5807
X5.5098Y-2.4665
X5.5118Y-2.0079
X5.5118Y-5.4724
X5.5571Y-2.4331
X5.5748Y-3.7933
X5.5787Y-2.5197
X5.5866Y-2.8031
X5.5866Y-2.8346
X5.5866Y-2.8661
X5.5866Y-2.8976
X5.5866Y-2.9291
X5.5866Y-3.0079
X5.5906Y-4.1339
X5.6043Y-4.2559
X5.6102Y-2.0079
X5.6102Y-5.4724
X5.6181Y-3.0906
X5.6339Y-2.6102
X5.6339Y-2.7776
X5.6378Y-2.1654
X5.7087Y-2.0079
X5.7087Y-2.2441
X5.7087Y-5.4724
X5.7539Y-3.6732
X5.8031Y-2.9488
X5.8071Y-2.0079
X5.8071Y-2.2598
X5.8071Y-5.4724
X5.9055Y-2.0079
X5.9055Y-5.4724
X5.9213Y-4.1476
X5.9606Y-4.252
X5.9823Y-3.0965
X5.9843Y-4.1811
X6.0039Y-2.0079
X6.0039Y-5.4724
X6.1024Y-2.0079
X6.1024Y-4.0138
X6.1024Y-5.4724
X6.1461Y-4.0945
X6.1772Y-2.1496
X6.1772Y-3.5413
X6.2008Y-2.0079
X6.2008Y-5.4724
X6.2205Y-2.2756
X6.2835Y-2.9488
X6.2874Y-4.1909
X6.2986Y-4.5816
X6.2992Y-2.0079
X6.2992Y-5.4724
X6.3406Y-3.0866
X6.3661Y-2.4213
X6.3681Y-2.7795
X6.3937Y-2.2598
X6.3957Y-4.4075
X6.3976Y-2.0079
X6.3976Y-5.4724
X6.4094Y-2.937
X6.4094Y-2.811
X6.4409Y-2.937
X6.4409Y-2.811
X6.4724Y-2.937
X6.4724Y-2.811
X6.4961Y-2.0079
X6.4961Y-5.4724
X6.5079Y-2.4094
X6.5127Y-2.7792
X6.5945Y-2.0079
X6.5945Y-5.4724
X6.6181Y-3.3425
X6.6299Y-3.0236
X6.6378Y-3.6358
X6.6516Y-2.7795
X6.6575Y-4.2343
X6.6575Y-4.4331
X6.6654Y-4.0315
X6.6732Y-4.622
X6.6819Y-2.6516
X6.6929Y-2.0079
X6.6929Y-5.4724
X6.7008Y-3.8289
X6.7047Y-2.5512
X6.7047Y-2.748
X6.7058Y-4.888
X6.7165Y-3.8602
X6.7165Y-3.8917
X6.7362Y-2.9961
X6.7411Y-2.9232
X6.7677Y-2.5079
X6.7677Y-2.5945
X6.7677Y-2.7047
X6.7677Y-2.7913
X6.7736Y-4.1102
X6.7754Y-2.9154
X6.7796Y-2.9626
X6.7913Y-2.0079
X6.7913Y-5.4724
X6.8189Y-3.0276
X6.8418Y-3.0734
X6.8439Y-3.1048
X6.8891Y-3.0394
X6.8898Y-2.0079
X6.8898Y-5.4724
X6.9094Y-2.5079
X6.9094Y-2.5945
X6.9173Y-3.0157
X6.9385Y-3.0785
X6.9485Y-2.9685
X6.9724Y-2.5512
X6.9783Y-2.811
X6.9882Y-2.0079
X6.9882Y-5.4724
X7.0079Y-4.6772
X7.0315Y-4.1535
X7.074Y-2.7535
X7.0785Y-3.2385
X7.0785Y-3.2785
X7.0815Y-4.1901
X7.0866Y-2.0079
X7.0866Y-5.4724
X7.0906Y-4.6378
X7.1024Y-2.5551
X7.1038Y-4.2124
X7.1261Y-4.2347
X7.1299Y-3.1339
X7.1483Y-4.2569
X7.1516Y-2.5531
X7.1585Y-2.9185
X7.1614Y-4.3189
X7.1619Y-4.1146
X7.1629Y-2.8823
X7.1732Y-3.4488
X7.177Y-2.7933
X7.1772Y-4.0335
X7.1785Y-3.2385
X7.1785Y-3.2785
X7.1842Y-4.1369
X7.185Y-2.0079
X7.185Y-2.5551
X7.185Y-5.4724
X7.1985Y-3.0585
X7.2028Y-3.3839
X7.2175Y-4.0897
X7.248Y-2.5551
X7.249Y-4.0897
X7.2795Y-2.5551
X7.2835Y-2.0079
X7.2835Y-5.4724
X7.2874Y-2.4213
X7.2894Y-4.187
X7.2984Y-4.4526
X7.2992Y-3.0768
X7.3031Y-2.3031
X7.311Y-2.5551
X7.311Y-3.689
X7.3573Y-2.7933
X7.3583Y-2.3465
X7.3583Y-2.5551
X7.3593Y-2.8705
X7.3701Y-3.9606
X7.3819Y-2.0079
X7.3819Y-5.4724
X7.3885Y-3.2185
X7.3957Y-3.3839
X7.4016Y-4.811
X7.4055Y-4.311
X7.4091Y-2.5602
X7.4291Y-4.5472
X7.4803Y-2.0079
X7.4803Y-5.4724
X7.5157Y-2.8016
X7.5197Y-3.0984
X7.5354Y-3.9803
X7.565Y-4.8189
X7.5787Y-2.0079
X7.5787Y-5.4724
X7.5886Y-3.813
X7.6546Y-3.8268
X7.6693Y-4.7244
X7.6772Y-2.0079
X7.6772Y-5.4724
X7.7736Y-4.3071
X7.7756Y-5.4724
X7.8268Y-5.2323
X7.874Y-5.4724
X7.878Y-3.8819
X7.9272Y-4.3236
X7.9311Y-4.4409
X7.9429Y-5.187
X7.9724Y-2.063
X7.9724Y-5.4724
X8.0197Y-2.2224
X8.0197Y-3.9567
X8.0197Y-5.1378
X8.0236Y-4.5472
X8.0431Y-2.0656
X8.0709Y-5.4724
X8.0846Y-2.1476
X8.1693Y-5.4724
X8.189Y-4.378
X8.1929Y-4.4567
X8.2244Y-2.311
X8.2677Y-4.6457
X8.2677Y-5.3228
X8.2677Y-5.4724
X8.2913Y-4.2126
X8.3327Y-4.3189
X8.3386Y-4.378
X8.3661Y-2.0079
X8.3661Y-5.4724
X8.4035Y-5.0453
X8.4154Y-4.6378
X8.4232Y-4.1969
X8.4646Y-5.4724
X8.4862Y-2.0276
X8.5433Y-4.3386
X8.5472Y-2.248
X8.563Y-5.4724
X8.5709Y-4.5138
X8.6047Y-3.998
X8.6063Y-2.0276
X8.6142Y-4.5472
X8.624Y-4.2234
X8.6348Y-3.9291
X8.6614Y-5.4724
X8.6654Y-2.2323
X8.7008Y-4.4921
X8.7008Y-4.6811
X8.7372Y-4.1201
X8.7431Y-3.8809
X8.7598Y-2.0079
X8.7598Y-5.4724
X8.8075Y-3.9134
X8.8583Y-5.4724
X8.8661Y-4.7402
X8.8843Y-4.0409
X8.9213Y-3.8406
X8.9331Y-4.1811
X8.9331Y-4.3031
X8.9488Y-3.8108
X8.9567Y-5.4724
X9.0059Y-2.0591
X9.0079Y-2.6969
X9.0079Y-3.1339
X9.0079Y-3.2125
X9.0079Y-3.2835
X9.0079Y-3.6161
X9.0463Y-3.2835
X9.0551Y-2.0079
X9.0551Y-5.4724
X9.0921Y-3.1659
X9.1142Y-3.8602
X9.1161Y-3.8114
X9.125Y-3.249
X9.1535Y-2.0079
X9.1535Y-5.4724
X9.252Y-2.0079
X9.252Y-5.4724
X9.3248Y-3.6614
X9.3287Y-3.3406
X9.3661Y-2.0512
X9.3661Y-5.4291
X9.4094Y-2.1654
X9.4094Y-2.2638
X9.4094Y-2.3622
X9.4094Y-2.4606
X9.4094Y-2.5591
X9.4094Y-2.6575
X9.4094Y-2.7559
X9.4094Y-2.8543
X9.4094Y-2.9528
X9.4094Y-3.0512
X9.4094Y-3.1496
X9.4094Y-3.248
X9.4094Y-3.3465
X9.4094Y-3.4449
X9.4094Y-3.6417
X9.4094Y-3.7402
X9.4094Y-3.937
X9.4094Y-4.0354
X9.4094Y-4.1339
X9.4094Y-4.2323
X9.4094Y-4.3307
X9.4094Y-4.4291
X9.4094Y-4.5276
X9.4094Y-4.626
X9.4094Y-4.7244
X9.4094Y-4.8228
X9.4094Y-4.9213
X9.4094Y-5.0197
X9.4094Y-5.1181
X9.4094Y-5.2165
X9.4094Y-5.315
T3
X7.1732Y-2.6732
X7.1732Y-2.7618
X7.2362Y-2.6732
X7.2362Y-2.7618
X7.2992Y-2.6732
X7.2992Y-2.7618
X7.3622Y-2.6732
X7.3622Y-2.7618
T4
X5.315Y-2.3622
X5.4134Y-2.3622
X5.5118Y-2.3622
X5.6102Y-2.3622
X5.7087Y-2.3622
X5.8071Y-2.3622
X5.9055Y-2.3622
X6.0039Y-2.3622
X6.1024Y-2.3622
X7.1457Y-2.9921
X7.2441Y-2.9921
X7.3425Y-2.9921
X7.4409Y-2.9921
X9.0827Y-2.5315
X9.0827Y-2.6299
X9.0827Y-2.7283
X9.0827Y-2.8268
X9.0827Y-2.9252
X9.0827Y-3.0236
T5
X2.0654Y-2.3819
X2.0654Y-2.4819
X2.0654Y-2.5819
X2.0654Y-2.6819
X2.0654Y-2.7819
X2.0654Y-2.8819
X2.1654Y-2.3819
X2.1654Y-2.4819
X2.1654Y-2.5819
X2.1654Y-2.6819
X2.1654Y-2.7819
X2.1654Y-2.8819
X2.2654Y-2.3819
X2.2654Y-2.4819
X2.2654Y-2.5819
X2.2654Y-2.6819
X2.2654Y-2.7819
X2.2654Y-2.8819
X2.874Y-4.5472
X2.874Y-4.7441
X2.9996Y-3.2429
X3.0996Y-3.2429
X3.1996Y-3.2429
X3.2996Y-3.2429
X3.4449Y-4.5472
X3.4449Y-4.6457
X3.4449Y-4.7441
X4.4587Y-3.2339
X4.4587Y-3.3339
X4.4587Y-3.4339
X4.4587Y-3.5339
X4.4587Y-3.6339
X4.4587Y-3.7339
X4.4587Y-3.8339
X4.4587Y-3.9339
X4.4587Y-4.0339
X4.4587Y-4.1339
X4.4587Y-4.2339
X4.4587Y-4.3339
X4.4587Y-4.4339
X4.4587Y-4.5339
X4.4587Y-4.6339
X4.4587Y-4.7339
X4.4587Y-4.8339
X4.4587Y-4.9339
X4.4587Y-5.0339
X4.5587Y-3.2339
X4.5587Y-3.3339
X4.5587Y-3.4339
X4.5587Y-3.5339
X4.5587Y-3.6339
X4.5587Y-3.7339
X4.5587Y-3.8339
X4.5587Y-3.9339
X4.5587Y-4.0339
X4.5587Y-4.1339
X4.5587Y-4.2339
X4.5587Y-4.3339
X4.5587Y-4.4339
X4.5587Y-4.5339
X4.5587Y-4.6339
X4.5587Y-4.7339
X4.5587Y-4.8339
X4.5587Y-4.9339
X4.5587Y-5.0339
X6.8587Y-3.2343
X6.8587Y-3.3339
X6.8587Y-3.4339
X6.8587Y-3.5339
X6.8587Y-3.6339
X6.8587Y-3.7339
X6.8587Y-3.8339
X6.8587Y-3.9339
X6.8587Y-4.0339
X6.8587Y-4.1339
X6.8587Y-4.2339
X6.8587Y-4.3339
X6.8587Y-4.4339
X6.8587Y-4.5339
X6.8587Y-4.6339
X6.8587Y-4.7339
X6.8587Y-4.8339
X6.8587Y-4.9339
X6.8587Y-5.0339
X6.9587Y-3.2343
X6.9587Y-3.3339
X6.9587Y-3.4339
X6.9587Y-3.5339
X6.9587Y-3.6339
X6.9587Y-3.7339
X6.9587Y-3.8339
X6.9587Y-3.9339
X6.9587Y-4.0339
X6.9587Y-4.1339
X6.9587Y-4.2339
X6.9587Y-4.3339
X6.9587Y-4.4339
X6.9587Y-4.5339
X6.9587Y-4.6339
X6.9587Y-4.7339
X6.9587Y-4.8339
X6.9587Y-4.9339
X6.9587Y-5.0339
X7.2047Y-2.3622
X7.2441Y-3.5874
X7.2441Y-3.6874
X7.2441Y-3.7874
X7.3031Y-2.3622
X9.0472Y-4.0339
X9.0472Y-4.1339
X9.0472Y-4.2339
X9.0472Y-4.3339
X9.0472Y-4.4339
T6
X7.5315Y-2.1181
X7.7165Y-2.1181
X7.9016Y-2.1181
T7
X2.1654Y-2.1654
X2.1654Y-5.315
X4.5276Y-2.1654
X4.5276Y-5.315
X6.8898Y-2.1654
X6.8898Y-5.315
X9.252Y-2.1654
X9.252Y-5.315
M30
