%TF.GenerationSoftware,KiCad,Pcbnew,8.0.0-8.0.0-1~ubuntu22.04.1*%
%TF.CreationDate,2024-03-21T09:18:37+01:00*%
%TF.ProjectId,uC_TP_Boussole_mb,75435f54-505f-4426-9f75-73736f6c655f,rev?*%
%TF.SameCoordinates,Original*%
%TF.FileFunction,Legend,Bot*%
%TF.FilePolarity,Positive*%
%FSLAX46Y46*%
G04 Gerber Fmt 4.6, Leading zero omitted, Abs format (unit mm)*
G04 Created by KiCad (PCBNEW 8.0.0-8.0.0-1~ubuntu22.04.1) date 2024-03-21 09:18:37*
%MOMM*%
%LPD*%
G01*
G04 APERTURE LIST*
%ADD10C,0.150000*%
%ADD11C,0.120000*%
G04 APERTURE END LIST*
D10*
X177194285Y-79054819D02*
X177194285Y-79864342D01*
X177194285Y-79864342D02*
X177146666Y-79959580D01*
X177146666Y-79959580D02*
X177099047Y-80007200D01*
X177099047Y-80007200D02*
X177003809Y-80054819D01*
X177003809Y-80054819D02*
X176813333Y-80054819D01*
X176813333Y-80054819D02*
X176718095Y-80007200D01*
X176718095Y-80007200D02*
X176670476Y-79959580D01*
X176670476Y-79959580D02*
X176622857Y-79864342D01*
X176622857Y-79864342D02*
X176622857Y-79054819D01*
X175670476Y-79054819D02*
X176146666Y-79054819D01*
X176146666Y-79054819D02*
X176194285Y-79531009D01*
X176194285Y-79531009D02*
X176146666Y-79483390D01*
X176146666Y-79483390D02*
X176051428Y-79435771D01*
X176051428Y-79435771D02*
X175813333Y-79435771D01*
X175813333Y-79435771D02*
X175718095Y-79483390D01*
X175718095Y-79483390D02*
X175670476Y-79531009D01*
X175670476Y-79531009D02*
X175622857Y-79626247D01*
X175622857Y-79626247D02*
X175622857Y-79864342D01*
X175622857Y-79864342D02*
X175670476Y-79959580D01*
X175670476Y-79959580D02*
X175718095Y-80007200D01*
X175718095Y-80007200D02*
X175813333Y-80054819D01*
X175813333Y-80054819D02*
X176051428Y-80054819D01*
X176051428Y-80054819D02*
X176146666Y-80007200D01*
X176146666Y-80007200D02*
X176194285Y-79959580D01*
X175003809Y-79054819D02*
X174908571Y-79054819D01*
X174908571Y-79054819D02*
X174813333Y-79102438D01*
X174813333Y-79102438D02*
X174765714Y-79150057D01*
X174765714Y-79150057D02*
X174718095Y-79245295D01*
X174718095Y-79245295D02*
X174670476Y-79435771D01*
X174670476Y-79435771D02*
X174670476Y-79673866D01*
X174670476Y-79673866D02*
X174718095Y-79864342D01*
X174718095Y-79864342D02*
X174765714Y-79959580D01*
X174765714Y-79959580D02*
X174813333Y-80007200D01*
X174813333Y-80007200D02*
X174908571Y-80054819D01*
X174908571Y-80054819D02*
X175003809Y-80054819D01*
X175003809Y-80054819D02*
X175099047Y-80007200D01*
X175099047Y-80007200D02*
X175146666Y-79959580D01*
X175146666Y-79959580D02*
X175194285Y-79864342D01*
X175194285Y-79864342D02*
X175241904Y-79673866D01*
X175241904Y-79673866D02*
X175241904Y-79435771D01*
X175241904Y-79435771D02*
X175194285Y-79245295D01*
X175194285Y-79245295D02*
X175146666Y-79150057D01*
X175146666Y-79150057D02*
X175099047Y-79102438D01*
X175099047Y-79102438D02*
X175003809Y-79054819D01*
X173718095Y-80054819D02*
X174289523Y-80054819D01*
X174003809Y-80054819D02*
X174003809Y-79054819D01*
X174003809Y-79054819D02*
X174099047Y-79197676D01*
X174099047Y-79197676D02*
X174194285Y-79292914D01*
X174194285Y-79292914D02*
X174289523Y-79340533D01*
X186535714Y-71954819D02*
X186535714Y-72669104D01*
X186535714Y-72669104D02*
X186583333Y-72811961D01*
X186583333Y-72811961D02*
X186678571Y-72907200D01*
X186678571Y-72907200D02*
X186821428Y-72954819D01*
X186821428Y-72954819D02*
X186916666Y-72954819D01*
X186107142Y-72050057D02*
X186059523Y-72002438D01*
X186059523Y-72002438D02*
X185964285Y-71954819D01*
X185964285Y-71954819D02*
X185726190Y-71954819D01*
X185726190Y-71954819D02*
X185630952Y-72002438D01*
X185630952Y-72002438D02*
X185583333Y-72050057D01*
X185583333Y-72050057D02*
X185535714Y-72145295D01*
X185535714Y-72145295D02*
X185535714Y-72240533D01*
X185535714Y-72240533D02*
X185583333Y-72383390D01*
X185583333Y-72383390D02*
X186154761Y-72954819D01*
X186154761Y-72954819D02*
X185535714Y-72954819D01*
X184916666Y-71954819D02*
X184821428Y-71954819D01*
X184821428Y-71954819D02*
X184726190Y-72002438D01*
X184726190Y-72002438D02*
X184678571Y-72050057D01*
X184678571Y-72050057D02*
X184630952Y-72145295D01*
X184630952Y-72145295D02*
X184583333Y-72335771D01*
X184583333Y-72335771D02*
X184583333Y-72573866D01*
X184583333Y-72573866D02*
X184630952Y-72764342D01*
X184630952Y-72764342D02*
X184678571Y-72859580D01*
X184678571Y-72859580D02*
X184726190Y-72907200D01*
X184726190Y-72907200D02*
X184821428Y-72954819D01*
X184821428Y-72954819D02*
X184916666Y-72954819D01*
X184916666Y-72954819D02*
X185011904Y-72907200D01*
X185011904Y-72907200D02*
X185059523Y-72859580D01*
X185059523Y-72859580D02*
X185107142Y-72764342D01*
X185107142Y-72764342D02*
X185154761Y-72573866D01*
X185154761Y-72573866D02*
X185154761Y-72335771D01*
X185154761Y-72335771D02*
X185107142Y-72145295D01*
X185107142Y-72145295D02*
X185059523Y-72050057D01*
X185059523Y-72050057D02*
X185011904Y-72002438D01*
X185011904Y-72002438D02*
X184916666Y-71954819D01*
X183630952Y-72954819D02*
X184202380Y-72954819D01*
X183916666Y-72954819D02*
X183916666Y-71954819D01*
X183916666Y-71954819D02*
X184011904Y-72097676D01*
X184011904Y-72097676D02*
X184107142Y-72192914D01*
X184107142Y-72192914D02*
X184202380Y-72240533D01*
D11*
%TO.C,U501*%
X111920000Y-80810000D02*
X111920000Y-82140000D01*
X111920000Y-83410000D02*
X111920000Y-129190000D01*
X113250000Y-80810000D02*
X111920000Y-80810000D01*
X114520000Y-80810000D02*
X114520000Y-83410000D01*
X114520000Y-83410000D02*
X111920000Y-83410000D01*
X117120000Y-80810000D02*
X114520000Y-80810000D01*
X117120000Y-80810000D02*
X117120000Y-129190000D01*
X117120000Y-129190000D02*
X111920000Y-129190000D01*
X172880000Y-80820000D02*
X172880000Y-82150000D01*
X172880000Y-83420000D02*
X172880000Y-129200000D01*
X174210000Y-80820000D02*
X172880000Y-80820000D01*
X175480000Y-80820000D02*
X175480000Y-83420000D01*
X175480000Y-83420000D02*
X172880000Y-83420000D01*
X178080000Y-80820000D02*
X175480000Y-80820000D01*
X178080000Y-80820000D02*
X178080000Y-129200000D01*
X178080000Y-129200000D02*
X172880000Y-129200000D01*
%TO.C,J201*%
X178940000Y-73590000D02*
X178940000Y-85310000D01*
X178940000Y-85310000D02*
X185250000Y-85310000D01*
X180360000Y-73590000D02*
X178940000Y-73590000D01*
X180360000Y-78090000D02*
X180360000Y-73590000D01*
X181250000Y-79200000D02*
X181250000Y-84700000D01*
X181250000Y-84700000D02*
X181750000Y-84700000D01*
X181750000Y-79200000D02*
X181250000Y-79200000D01*
X181750000Y-84700000D02*
X181750000Y-79200000D01*
X183750000Y-79200000D02*
X183750000Y-84700000D01*
X183750000Y-84700000D02*
X184250000Y-84700000D01*
X184250000Y-79200000D02*
X183750000Y-79200000D01*
X184250000Y-84700000D02*
X184250000Y-79200000D01*
X185250000Y-78090000D02*
X180360000Y-78090000D01*
X185250000Y-78090000D02*
X190140000Y-78090000D01*
X186250000Y-79200000D02*
X186250000Y-84700000D01*
X186250000Y-84700000D02*
X186750000Y-84700000D01*
X186750000Y-79200000D02*
X186250000Y-79200000D01*
X186750000Y-84700000D02*
X186750000Y-79200000D01*
X188700000Y-73900000D02*
X189300000Y-73900000D01*
X188750000Y-79200000D02*
X188750000Y-84700000D01*
X188750000Y-84700000D02*
X189250000Y-84700000D01*
X189000000Y-74500000D02*
X188700000Y-73900000D01*
X189250000Y-79200000D02*
X188750000Y-79200000D01*
X189250000Y-84700000D02*
X189250000Y-79200000D01*
X189300000Y-73900000D02*
X189000000Y-74500000D01*
X190140000Y-73590000D02*
X191560000Y-73590000D01*
X190140000Y-78090000D02*
X190140000Y-73590000D01*
X191560000Y-73590000D02*
X191560000Y-85310000D01*
X191560000Y-85310000D02*
X185250000Y-85310000D01*
%TD*%
M02*
