%TF.GenerationSoftware,KiCad,Pcbnew,8.0.0-8.0.0-1~ubuntu22.04.1*%
%TF.CreationDate,2024-03-21T09:18:37+01:00*%
%TF.ProjectId,uC_TP_Boussole_mb,75435f54-505f-4426-9f75-73736f6c655f,rev?*%
%TF.SameCoordinates,Original*%
%TF.FileFunction,Soldermask,Bot*%
%TF.FilePolarity,Negative*%
%FSLAX46Y46*%
G04 Gerber Fmt 4.6, Leading zero omitted, Abs format (unit mm)*
G04 Created by KiCad (PCBNEW 8.0.0-8.0.0-1~ubuntu22.04.1) date 2024-03-21 09:18:37*
%MOMM*%
%LPD*%
G01*
G04 APERTURE LIST*
G04 Aperture macros list*
%AMRoundRect*
0 Rectangle with rounded corners*
0 $1 Rounding radius*
0 $2 $3 $4 $5 $6 $7 $8 $9 X,Y pos of 4 corners*
0 Add a 4 corners polygon primitive as box body*
4,1,4,$2,$3,$4,$5,$6,$7,$8,$9,$2,$3,0*
0 Add four circle primitives for the rounded corners*
1,1,$1+$1,$2,$3*
1,1,$1+$1,$4,$5*
1,1,$1+$1,$6,$7*
1,1,$1+$1,$8,$9*
0 Add four rect primitives between the rounded corners*
20,1,$1+$1,$2,$3,$4,$5,0*
20,1,$1+$1,$4,$5,$6,$7,0*
20,1,$1+$1,$6,$7,$8,$9,0*
20,1,$1+$1,$8,$9,$2,$3,0*%
G04 Aperture macros list end*
%ADD10C,1.900000*%
%ADD11RoundRect,0.170000X-0.680000X-0.680000X0.680000X-0.680000X0.680000X0.680000X-0.680000X0.680000X0*%
%ADD12C,1.700000*%
%ADD13C,6.400000*%
%ADD14RoundRect,0.250000X0.600000X0.725000X-0.600000X0.725000X-0.600000X-0.725000X0.600000X-0.725000X0*%
%ADD15O,1.700000X1.950000*%
%ADD16R,1.700000X1.700000*%
%ADD17O,1.700000X1.700000*%
%ADD18C,2.000000*%
%ADD19C,1.600000*%
%ADD20RoundRect,0.250000X0.600000X0.750000X-0.600000X0.750000X-0.600000X-0.750000X0.600000X-0.750000X0*%
%ADD21O,1.700000X2.000000*%
%ADD22C,3.200000*%
%ADD23RoundRect,0.250000X0.725000X-0.600000X0.725000X0.600000X-0.725000X0.600000X-0.725000X-0.600000X0*%
%ADD24O,1.950000X1.700000*%
%ADD25C,2.775000*%
G04 APERTURE END LIST*
D10*
%TO.C,J801*%
X68150000Y-83150000D03*
X68150000Y-106850000D03*
X91850000Y-83150000D03*
X91850000Y-106850000D03*
D11*
X76190000Y-82370000D03*
D12*
X78730000Y-82370000D03*
X81270000Y-82370000D03*
X83810000Y-82370000D03*
%TD*%
D13*
%TO.C,H105*%
X235000000Y-135000000D03*
%TD*%
%TO.C,H102*%
X115000000Y-55000000D03*
%TD*%
D14*
%TO.C,J701*%
X155000000Y-60000000D03*
D15*
X152500000Y-60000000D03*
X150000000Y-60000000D03*
X147500000Y-60000000D03*
X145000000Y-60000000D03*
X142500000Y-60000000D03*
X140000000Y-60000000D03*
X137500000Y-60000000D03*
X135000000Y-60000000D03*
%TD*%
D16*
%TO.C,J502*%
X55000000Y-60500000D03*
D17*
X55000000Y-63040000D03*
X55000000Y-65580000D03*
X55000000Y-68120000D03*
X55000000Y-70660000D03*
X55000000Y-73200000D03*
%TD*%
D13*
%TO.C,H104*%
X235000000Y-55000000D03*
%TD*%
D18*
%TO.C,SW901*%
X73000000Y-115500000D03*
X73000000Y-120500000D03*
X87500000Y-118000000D03*
X87500000Y-115500000D03*
X87500000Y-120500000D03*
%TD*%
D13*
%TO.C,H103*%
X175000000Y-55000000D03*
%TD*%
D19*
%TO.C,U401*%
X184000000Y-91120000D03*
X184000000Y-93660000D03*
X184000000Y-96200000D03*
%TD*%
D16*
%TO.C,J301*%
X229800000Y-102460000D03*
D17*
X229800000Y-105000000D03*
X229800000Y-107540000D03*
X229800000Y-110080000D03*
X229800000Y-112620000D03*
%TD*%
D20*
%TO.C,J401*%
X185500000Y-60000000D03*
D21*
X183000000Y-60000000D03*
%TD*%
D13*
%TO.C,H101*%
X55000000Y-55000000D03*
%TD*%
D22*
%TO.C,U501*%
X120870000Y-78330000D03*
X153890000Y-130400000D03*
X169130000Y-79600000D03*
D16*
X113250000Y-82140000D03*
D17*
X115790000Y-82140000D03*
X113250000Y-84680000D03*
X115790000Y-84680000D03*
X113250000Y-87220000D03*
X115790000Y-87220000D03*
X113250000Y-89760000D03*
X115790000Y-89760000D03*
X113250000Y-92300000D03*
X115790000Y-92300000D03*
X113250000Y-94840000D03*
X115790000Y-94840000D03*
X113250000Y-97380000D03*
X115790000Y-97380000D03*
X113250000Y-99920000D03*
X115790000Y-99920000D03*
X113250000Y-102460000D03*
X115790000Y-102460000D03*
X113250000Y-105000000D03*
X115790000Y-105000000D03*
X113250000Y-107540000D03*
X115790000Y-107540000D03*
X113250000Y-110080000D03*
X115790000Y-110080000D03*
X113250000Y-112620000D03*
X115790000Y-112620000D03*
X113250000Y-115160000D03*
X115790000Y-115160000D03*
X113250000Y-117700000D03*
X115790000Y-117700000D03*
X113250000Y-120240000D03*
X115790000Y-120240000D03*
X113250000Y-122780000D03*
X115790000Y-122780000D03*
X113250000Y-125320000D03*
X115790000Y-125320000D03*
X113250000Y-127860000D03*
X115790000Y-127860000D03*
D16*
X174210000Y-82150000D03*
D17*
X176750000Y-82150000D03*
X174210000Y-84680000D03*
X176750000Y-84680000D03*
X174210000Y-87220000D03*
X176750000Y-87220000D03*
X174210000Y-89760000D03*
X176750000Y-89760000D03*
X174210000Y-92300000D03*
X176750000Y-92300000D03*
X174210000Y-94840000D03*
X176750000Y-94840000D03*
X174210000Y-97380000D03*
X176750000Y-97380000D03*
X174210000Y-99920000D03*
X176750000Y-99920000D03*
X174210000Y-102460000D03*
X176750000Y-102460000D03*
X174210000Y-105000000D03*
X176750000Y-105000000D03*
X174210000Y-107540000D03*
X176750000Y-107540000D03*
X174210000Y-110080000D03*
X176750000Y-110080000D03*
X174210000Y-112620000D03*
X176750000Y-112620000D03*
X174210000Y-115160000D03*
X176750000Y-115160000D03*
X174210000Y-117700000D03*
X176750000Y-117700000D03*
X174210000Y-120240000D03*
X176750000Y-120240000D03*
X174210000Y-122780000D03*
X176750000Y-122780000D03*
X174210000Y-125320000D03*
X176750000Y-125320000D03*
X174210000Y-127860000D03*
X176750000Y-127860000D03*
%TD*%
D13*
%TO.C,H107*%
X115000000Y-135000000D03*
%TD*%
D23*
%TO.C,J302*%
X230700000Y-76800000D03*
D24*
X230700000Y-74300000D03*
X230700000Y-71800000D03*
X230700000Y-69300000D03*
X230700000Y-66800000D03*
X230700000Y-64300000D03*
%TD*%
D16*
%TO.C,J501*%
X52460000Y-60500000D03*
D17*
X52460000Y-63040000D03*
X52460000Y-65580000D03*
X52460000Y-68120000D03*
X52460000Y-70660000D03*
X52460000Y-73200000D03*
%TD*%
D16*
%TO.C,J503*%
X57540000Y-60500000D03*
D17*
X57540000Y-63040000D03*
X57540000Y-65580000D03*
X57540000Y-68120000D03*
X57540000Y-70660000D03*
X57540000Y-73200000D03*
%TD*%
D13*
%TO.C,H108*%
X55000000Y-135000000D03*
%TD*%
D25*
%TO.C,SW401*%
X191300000Y-53800000D03*
X196000000Y-53800000D03*
X200700000Y-53800000D03*
%TD*%
D13*
%TO.C,H106*%
X175000000Y-135000000D03*
%TD*%
D14*
%TO.C,J201*%
X189000000Y-76000000D03*
D15*
X186500000Y-76000000D03*
X184000000Y-76000000D03*
X181500000Y-76000000D03*
%TD*%
M02*
